<?xml version="1.0" ?>

<!-- License: CC Attribution. Made by Alpár-Etele Méder: https://thoseicons.com/ -->
<svg width="800px" height="800px" viewBox="0 0 24 24" enable-background="new 0 0 24 24" id="Layer_1" version="1.1" xml:space="preserve" xmlns="http://www.w3.org/2000/svg" xmlns:xlink="http://www.w3.org/1999/xlink">

<g>

<path d="M22.5,4C22.7763672,4,23,3.7763672,23,3.5v-2C23,1.2236328,22.7763672,1,22.5,1h-2   C20.2236328,1,20,1.2236328,20,1.5C20,1.7758789,19.7753906,2,19.5,2S19,1.7758789,19,1.5C19,1.2236328,18.7763672,1,18.5,1h-3   C15.2236328,1,15,1.2236328,15,1.5C15,1.7758789,14.7753906,2,14.5,2S14,1.7758789,14,1.5C14,1.2236328,13.7763672,1,13.5,1h-3   C10.2236328,1,10,1.2236328,10,1.5C10,1.7758789,9.7753906,2,9.5,2S9,1.7758789,9,1.5C9,1.2236328,8.7763672,1,8.5,1h-3   C5.2236328,1,5,1.2236328,5,1.5C5,1.7758789,4.7753906,2,4.5,2S4,1.7758789,4,1.5C4,1.2236328,3.7763672,1,3.5,1h-2   C1.2236328,1,1,1.2236328,1,1.5v2C1,3.7763672,1.2236328,4,1.5,4C1.7753906,4,2,4.2241211,2,4.5S1.7753906,5,1.5,5   C1.2236328,5,1,5.2236328,1,5.5v3C1,8.7763672,1.2236328,9,1.5,9C1.7753906,9,2,9.2241211,2,9.5S1.7753906,10,1.5,10   C1.2236328,10,1,10.2236328,1,10.5v3C1,13.7763672,1.2236328,14,1.5,14C1.7753906,14,2,14.2241211,2,14.5S1.7753906,15,1.5,15   C1.2236328,15,1,15.2236328,1,15.5v3C1,18.7763672,1.2236328,19,1.5,19C1.7753906,19,2,19.2241211,2,19.5S1.7753906,20,1.5,20   C1.2236328,20,1,20.2236328,1,20.5v2C1,22.7763672,1.2236328,23,1.5,23h2C3.7763672,23,4,22.7763672,4,22.5   C4,22.2241211,4.2246094,22,4.5,22S5,22.2241211,5,22.5C5,22.7763672,5.2236328,23,5.5,23h3C8.7763672,23,9,22.7763672,9,22.5   C9,22.2241211,9.2246094,22,9.5,22s0.5,0.2241211,0.5,0.5c0,0.2763672,0.2236328,0.5,0.5,0.5h3c0.2763672,0,0.5-0.2236328,0.5-0.5   c0-0.2758789,0.2246094-0.5,0.5-0.5s0.5,0.2241211,0.5,0.5c0,0.2763672,0.2236328,0.5,0.5,0.5h3c0.2763672,0,0.5-0.2236328,0.5-0.5   c0-0.2758789,0.2246094-0.5,0.5-0.5s0.5,0.2241211,0.5,0.5c0,0.2763672,0.2236328,0.5,0.5,0.5h2c0.2763672,0,0.5-0.2236328,0.5-0.5   v-2c0-0.2763672-0.2236328-0.5-0.5-0.5c-0.2753906,0-0.5-0.2241211-0.5-0.5s0.2246094-0.5,0.5-0.5   c0.2763672,0,0.5-0.2236328,0.5-0.5v-3c0-0.2763672-0.2236328-0.5-0.5-0.5c-0.2753906,0-0.5-0.2241211-0.5-0.5   s0.2246094-0.5,0.5-0.5c0.2763672,0,0.5-0.2236328,0.5-0.5v-3c0-0.2763672-0.2236328-0.5-0.5-0.5   C22.2246094,10,22,9.7758789,22,9.5S22.2246094,9,22.5,9C22.7763672,9,23,8.7763672,23,8.5v-3C23,5.2236328,22.7763672,5,22.5,5   C22.2246094,5,22,4.7758789,22,4.5S22.2246094,4,22.5,4z" fill="#303C42"/>

<path d="M22,3.0854492C21.4179688,3.2919922,21,3.8481445,21,4.5s0.4179688,1.2080078,1,1.4145508v2.1708984   C21.4179688,8.2919922,21,8.8481445,21,9.5s0.4179688,1.2080078,1,1.4145508v2.1708984   c-0.5820312,0.206543-1,0.7626953-1,1.4145508s0.4179688,1.2080078,1,1.4145508v2.1708984   c-0.5820312,0.206543-1,0.7626953-1,1.4145508s0.4179688,1.2080078,1,1.4145508V22h-1.0859375   C20.7080078,21.4179688,20.1523438,21,19.5,21s-1.2080078,0.4179688-1.4140625,1h-2.171875   C15.7080078,21.4179688,15.1523438,21,14.5,21s-1.2080078,0.4179688-1.4140625,1h-2.171875   C10.7080078,21.4179688,10.1523438,21,9.5,21s-1.2080078,0.4179688-1.4140625,1h-2.171875   C5.7080078,21.4179688,5.1523438,21,4.5,21s-1.2080078,0.4179688-1.4140625,1H2v-1.0854492   C2.5820312,20.7080078,3,20.1518555,3,19.5s-0.4179688-1.2080078-1-1.4145508v-2.1708984C2.5820312,15.7080078,3,15.1518555,3,14.5   s-0.4179688-1.2080078-1-1.4145508v-2.1708984C2.5820312,10.7080078,3,10.1518555,3,9.5S2.5820312,8.2919922,2,8.0854492V5.9145508   C2.5820312,5.7080078,3,5.1518555,3,4.5S2.5820312,3.2919922,2,3.0854492V2h1.0859375C3.2919922,2.5820312,3.8476562,3,4.5,3   s1.2080078-0.4179688,1.4140625-1h2.171875C8.2919922,2.5820312,8.8476562,3,9.5,3s1.2080078-0.4179688,1.4140625-1h2.171875   C13.2919922,2.5820312,13.8476562,3,14.5,3s1.2080078-0.4179688,1.4140625-1h2.171875C18.2919922,2.5820312,18.8476562,3,19.5,3   s1.2080078-0.4179688,1.4140625-1H22V3.0854492z" fill="#EA368E"/>

<path d="M3.5,20.9145508C3.994751,20.7080078,4.3499756,20.1518555,4.3499756,19.5   S3.994751,18.2919922,3.5,18.0854492v-2.1708984C3.994751,15.7080078,4.3499756,15.1518555,4.3499756,14.5   S3.994751,13.2919922,3.5,13.0854492v-2.1708984C3.994751,10.7080078,4.3499756,10.1518555,4.3499756,9.5   S3.994751,8.2919922,3.5,8.0854492V5.9145508C3.994751,5.7080078,4.3499756,5.1518555,4.3499756,4.5   S3.994751,3.2919922,3.5,3.0854492V2.5953979C3.3199463,2.4307251,3.1689453,2.2344971,3.0859375,2H2v1.0854492   C2.5820312,3.2919922,3,3.8481445,3,4.5S2.5820312,5.7080078,2,5.9145508v2.1708984C2.5820312,8.2919922,3,8.8481445,3,9.5   s-0.4179688,1.2080078-1,1.4145508v2.1708984C2.5820312,13.2919922,3,13.8481445,3,14.5s-0.4179688,1.2080078-1,1.4145508   v2.1708984C2.5820312,18.2919922,3,18.8481445,3,19.5s-0.4179688,1.2080078-1,1.4145508V22h1.0859375   C3.1689453,21.7655029,3.3199463,21.5692749,3.5,21.4046021V20.9145508z" fill="#FFFFFF" opacity="0.2"/>

<path d="M22,3.0854492V2h-1.0859375C20.8310547,2.2344971,20.6800537,2.4307251,20.5,2.5953979v0.4900513   C20.005249,3.2919922,19.6500244,3.8481445,19.6500244,4.5S20.005249,5.7080078,20.5,5.9145508v2.1708984   C20.005249,8.2919922,19.6500244,8.8481445,19.6500244,9.5S20.005249,10.7080078,20.5,10.9145508v2.1708984   c-0.494751,0.206543-0.8499756,0.7626953-0.8499756,1.4145508S20.005249,15.7080078,20.5,15.9145508v2.1708984   c-0.494751,0.206543-0.8499756,0.7626953-0.8499756,1.4145508S20.005249,20.7080078,20.5,20.9145508v0.4900513   C20.6800537,21.5692749,20.8310547,21.7655029,20.9140625,22H22v-1.0854492c-0.5820312-0.206543-1-0.7626953-1-1.4145508   s0.4179688-1.2080078,1-1.4145508v-2.1708984c-0.5820312-0.206543-1-0.7626953-1-1.4145508s0.4179688-1.2080078,1-1.4145508   v-2.1708984C21.4179688,10.7080078,21,10.1518555,21,9.5s0.4179688-1.2080078,1-1.4145508V5.9145508   C21.4179688,5.7080078,21,5.1518555,21,4.5S21.4179688,3.2919922,22,3.0854492z" opacity="0.1"/>

<circle cx="12" cy="12" fill="#303C42" r="6"/>

<circle cx="12" cy="12" fill="#FFDA02" r="5"/>

<path d="M16.4204712,9.713562C16.4616699,9.9714355,16.5,10.2307129,16.5,10.5c0,2.7568359-2.2431641,5-5,5   c-1.928772,0-3.586853-1.1098022-4.4204712-2.713562C7.460022,15.1685181,9.5124512,17,12,17c2.7568359,0,5-2.2431641,5-5   C17,11.171936,16.7783203,10.4020386,16.4204712,9.713562z" opacity="0.1"/>

<linearGradient gradientUnits="userSpaceOnUse" id="SVGID_1_" x1="-1.0996976" x2="25.0996971" y1="5.8915105" y2="18.10849">

<stop offset="0" style="stop-color:#FFFFFF;stop-opacity:0.2"/>

<stop offset="1" style="stop-color:#FFFFFF;stop-opacity:0"/>

</linearGradient>

<path d="M22.5,4C22.7763672,4,23,3.7763672,23,3.5v-2C23,1.2236328,22.7763672,1,22.5,1h-2   C20.2236328,1,20,1.2236328,20,1.5C20,1.7758789,19.7753906,2,19.5,2S19,1.7758789,19,1.5C19,1.2236328,18.7763672,1,18.5,1h-3   C15.2236328,1,15,1.2236328,15,1.5C15,1.7758789,14.7753906,2,14.5,2S14,1.7758789,14,1.5C14,1.2236328,13.7763672,1,13.5,1h-3   C10.2236328,1,10,1.2236328,10,1.5C10,1.7758789,9.7753906,2,9.5,2S9,1.7758789,9,1.5C9,1.2236328,8.7763672,1,8.5,1h-3   C5.2236328,1,5,1.2236328,5,1.5C5,1.7758789,4.7753906,2,4.5,2S4,1.7758789,4,1.5C4,1.2236328,3.7763672,1,3.5,1h-2   C1.2236328,1,1,1.2236328,1,1.5v2C1,3.7763672,1.2236328,4,1.5,4C1.7753906,4,2,4.2241211,2,4.5S1.7753906,5,1.5,5   C1.2236328,5,1,5.2236328,1,5.5v3C1,8.7763672,1.2236328,9,1.5,9C1.7753906,9,2,9.2241211,2,9.5S1.7753906,10,1.5,10   C1.2236328,10,1,10.2236328,1,10.5v3C1,13.7763672,1.2236328,14,1.5,14C1.7753906,14,2,14.2241211,2,14.5S1.7753906,15,1.5,15   C1.2236328,15,1,15.2236328,1,15.5v3C1,18.7763672,1.2236328,19,1.5,19C1.7753906,19,2,19.2241211,2,19.5S1.7753906,20,1.5,20   C1.2236328,20,1,20.2236328,1,20.5v2C1,22.7763672,1.2236328,23,1.5,23h2C3.7763672,23,4,22.7763672,4,22.5   C4,22.2241211,4.2246094,22,4.5,22S5,22.2241211,5,22.5C5,22.7763672,5.2236328,23,5.5,23h3C8.7763672,23,9,22.7763672,9,22.5   C9,22.2241211,9.2246094,22,9.5,22s0.5,0.2241211,0.5,0.5c0,0.2763672,0.2236328,0.5,0.5,0.5h3c0.2763672,0,0.5-0.2236328,0.5-0.5   c0-0.2758789,0.2246094-0.5,0.5-0.5s0.5,0.2241211,0.5,0.5c0,0.2763672,0.2236328,0.5,0.5,0.5h3c0.2763672,0,0.5-0.2236328,0.5-0.5   c0-0.2758789,0.2246094-0.5,0.5-0.5s0.5,0.2241211,0.5,0.5c0,0.2763672,0.2236328,0.5,0.5,0.5h2c0.2763672,0,0.5-0.2236328,0.5-0.5   v-2c0-0.2763672-0.2236328-0.5-0.5-0.5c-0.2753906,0-0.5-0.2241211-0.5-0.5s0.2246094-0.5,0.5-0.5   c0.2763672,0,0.5-0.2236328,0.5-0.5v-3c0-0.2763672-0.2236328-0.5-0.5-0.5c-0.2753906,0-0.5-0.2241211-0.5-0.5   s0.2246094-0.5,0.5-0.5c0.2763672,0,0.5-0.2236328,0.5-0.5v-3c0-0.2763672-0.2236328-0.5-0.5-0.5   C22.2246094,10,22,9.7758789,22,9.5S22.2246094,9,22.5,9C22.7763672,9,23,8.7763672,23,8.5v-3C23,5.2236328,22.7763672,5,22.5,5   C22.2246094,5,22,4.7758789,22,4.5S22.2246094,4,22.5,4z" fill="url(#SVGID_1_)"/>

</g>

<g/>

<g/>

<g/>

<g/>

<g/>

<g/>

<g/>

<g/>

<g/>

<g/>

<g/>

<g/>

<g/>

<g/>

<g/>

</svg>