<svg version="1.0" xmlns="http://www.w3.org/2000/svg"
 width="2500.000000pt" height="2500.000000pt" viewBox="0 0 2500.000000 2500.000000"
 preserveAspectRatio="xMidYMid meet">

<g transform="translate(0.000000,2500.000000) scale(0.100000,-0.100000)"
fill="#000000" stroke="none">
<path d="M16188 24610 c-15 -4 -41 -18 -57 -29 -17 -12 -59 -27 -93 -33 -47
-8 -73 -19 -103 -45 -110 -94 -231 -111 -385 -53 -47 17 -101 41 -120 52 -56
34 -143 47 -305 48 -168 0 -237 -13 -286 -54 -17 -14 -37 -26 -44 -26 -7 0
-51 -18 -97 -40 -104 -49 -202 -67 -292 -51 -34 6 -82 11 -105 11 -23 0 -58 7
-78 15 -48 20 -267 21 -320 1 -21 -8 -64 -20 -95 -26 -42 -8 -74 -24 -117 -56
-107 -80 -125 -83 -481 -88 -254 -4 -351 -15 -445 -51 -36 -14 -93 -25 -141
-29 -64 -4 -95 -12 -154 -41 -41 -19 -87 -35 -102 -35 -39 0 -115 -30 -261
-104 -133 -68 -202 -111 -252 -156 -16 -15 -42 -34 -57 -41 -23 -12 -156 -129
-227 -200 -76 -77 -162 -180 -208 -252 -29 -45 -66 -102 -82 -127 -16 -25 -34
-63 -40 -84 -6 -21 -19 -49 -31 -60 -11 -12 -36 -67 -56 -122 -51 -141 -53
-151 -65 -234 -6 -41 -21 -106 -35 -144 -40 -115 -54 -339 -73 -1206 -9 -391
-21 -587 -46 -754 -8 -55 -15 -117 -15 -138 0 -21 -6 -54 -14 -73 -23 -55 -66
-220 -66 -253 0 -19 -33 -96 -85 -198 -47 -92 -85 -172 -85 -177 0 -5 -10 -23
-22 -40 -13 -18 -31 -48 -40 -67 -10 -19 -38 -62 -62 -95 -25 -33 -57 -79 -71
-102 -35 -55 -188 -209 -234 -234 -20 -11 -56 -35 -81 -54 -25 -19 -58 -44
-73 -56 -16 -12 -51 -26 -77 -31 -27 -5 -83 -24 -124 -44 -51 -23 -102 -38
-158 -45 -46 -6 -105 -17 -132 -25 -64 -18 -150 -18 -212 1 -27 8 -87 18 -134
21 -66 5 -97 13 -139 35 -30 16 -63 29 -75 29 -28 0 -117 42 -135 64 -7 9 -38
23 -68 32 -35 10 -60 25 -74 43 -11 15 -45 45 -75 67 -63 45 -314 293 -359
354 -16 23 -64 76 -105 118 -42 43 -107 123 -145 180 -37 57 -93 132 -124 167
-67 75 -92 113 -125 180 -13 28 -31 57 -40 64 -32 27 -110 147 -133 205 -12
33 -31 69 -41 80 -10 12 -31 41 -46 66 -15 25 -38 61 -51 80 -13 19 -38 55
-55 80 -16 25 -41 61 -55 80 -13 19 -35 56 -49 81 -14 25 -37 60 -51 77 -14
17 -33 53 -42 79 -9 26 -26 62 -38 78 -13 17 -28 46 -34 66 -6 20 -24 56 -40
81 -15 24 -34 61 -40 81 -7 20 -23 52 -36 71 -22 32 -52 98 -90 196 -8 19 -26
73 -40 120 -15 47 -44 122 -66 167 -28 58 -38 90 -33 107 5 20 -3 35 -41 75
-85 91 -126 73 -347 -154 -76 -77 -138 -144 -138 -149 0 -4 -47 -56 -104 -115
-57 -58 -112 -124 -124 -146 -11 -22 -29 -49 -41 -59 -28 -25 -27 -75 1 -112
12 -16 60 -70 107 -120 47 -50 142 -153 211 -230 69 -76 190 -208 270 -294 80
-86 204 -221 275 -300 72 -79 162 -178 200 -220 39 -41 146 -159 240 -260 93
-102 197 -214 231 -250 34 -36 108 -117 165 -181 57 -63 178 -196 269 -294
163 -176 280 -303 535 -581 321 -349 462 -499 594 -633 77 -80 141 -148 141
-152 0 -7 95 -104 136 -140 11 -9 37 -40 59 -69 57 -75 149 -185 214 -254 48
-52 53 -59 37 -68 -11 -6 -158 -11 -360 -13 -286 -3 -348 -6 -380 -19 -52 -22
-289 -22 -326 -1 -16 9 -56 14 -114 15 -80 0 -92 -2 -123 -26 -40 -30 -45 -70
-10 -83 12 -4 103 -14 202 -20 l180 -13 83 -41 c129 -65 215 -158 258 -279 15
-40 35 -90 46 -111 10 -20 23 -70 28 -110 29 -218 31 -291 21 -967 -20 -1249
-42 -2254 -51 -2303 -6 -26 -10 -80 -10 -120 0 -84 -24 -422 -41 -585 -13
-125 -5 -108 -119 -238 -30 -35 -66 -77 -80 -93 -32 -39 -130 -60 -319 -70
l-134 -7 -29 -33 c-20 -22 -28 -41 -26 -59 l3 -27 2059 -3 c2025 -2 2060 -2
2080 17 12 11 33 24 47 30 29 10 29 9 64 276 8 61 31 220 50 355 20 135 40
292 45 350 5 58 16 134 25 170 22 89 31 365 13 400 -21 39 -61 38 -89 -2 -13
-18 -29 -37 -37 -42 -17 -10 -74 -131 -109 -231 -14 -38 -28 -74 -33 -80 -4
-5 -22 -44 -39 -85 -50 -116 -153 -263 -260 -370 -158 -157 -332 -263 -551
-335 -63 -21 -120 -42 -127 -47 -6 -5 -41 -14 -78 -19 -36 -5 -79 -16 -95 -24
-19 -10 -58 -15 -109 -15 -63 0 -88 -4 -113 -20 -46 -28 -175 -28 -237 0 -24
11 -61 20 -82 20 -22 0 -57 9 -79 20 -22 11 -57 20 -79 20 -30 0 -49 8 -81 35
-23 19 -46 35 -52 35 -5 0 -38 28 -74 61 -42 41 -69 77 -80 108 -10 25 -26 58
-36 73 -10 14 -18 44 -18 66 0 22 -7 56 -15 76 -13 31 -15 133 -11 788 2 414
7 786 11 827 l7 74 101 -7 c233 -16 411 -70 561 -170 243 -161 390 -430 456
-830 11 -66 24 -124 29 -129 21 -21 56 -1 83 48 24 44 28 61 28 141 0 59 -5
104 -15 127 -21 50 -19 110 4 156 23 45 25 89 22 451 0 36 3 240 7 454 l7 388
134 -143 c74 -79 195 -208 270 -285 75 -78 156 -166 180 -195 24 -30 136 -154
250 -277 113 -122 251 -274 306 -336 55 -62 192 -211 305 -332 113 -121 275
-296 360 -389 85 -93 173 -188 195 -210 22 -23 70 -75 106 -116 257 -288 431
-478 639 -699 76 -80 160 -170 188 -201 27 -31 76 -83 108 -115 32 -33 79 -85
104 -116 25 -31 123 -143 218 -247 l173 -191 -75 0 c-41 0 -78 -4 -81 -10 -3
-5 -16 -10 -28 -10 -12 0 -40 -9 -62 -19 -36 -16 -44 -16 -82 -4 -38 13 -48
13 -92 -2 -39 -13 -82 -16 -195 -14 -156 3 -176 -3 -176 -47 0 -27 26 -44 68
-44 49 0 104 -29 167 -89 99 -92 177 -209 236 -351 12 -30 28 -62 35 -70 7 -8
22 -53 33 -100 12 -47 32 -106 45 -131 13 -25 29 -70 36 -100 7 -30 25 -74 40
-99 15 -25 32 -71 39 -102 7 -31 23 -73 36 -92 13 -20 29 -55 36 -78 6 -24 26
-77 44 -118 19 -41 46 -104 60 -140 82 -201 110 -272 130 -331 13 -36 35 -89
49 -117 14 -28 26 -57 26 -64 0 -12 82 -229 182 -483 21 -55 52 -136 67 -180
33 -93 160 -415 196 -495 25 -56 48 -114 114 -280 21 -52 91 -225 156 -385 65
-159 134 -333 155 -385 87 -224 167 -425 222 -560 33 -80 70 -174 83 -210 17
-45 36 -77 65 -104 38 -35 46 -38 82 -33 48 6 75 29 98 82 10 22 27 48 38 59
12 10 31 47 42 81 11 34 30 71 41 81 11 9 29 49 40 88 12 39 34 91 49 116 31
51 68 141 100 245 11 38 30 79 40 90 11 12 29 47 40 79 11 33 24 64 29 70 5 6
34 74 65 151 32 77 68 164 81 193 37 79 110 275 144 388 17 56 37 107 45 113
8 7 24 37 37 69 12 31 50 113 84 182 33 69 71 149 84 178 l22 54 87 -83 c48
-46 91 -90 96 -98 5 -8 61 -67 125 -131 145 -147 246 -257 270 -296 10 -16 38
-47 61 -69 23 -22 56 -58 72 -80 16 -22 62 -73 101 -114 40 -41 92 -98 117
-127 60 -69 235 -256 338 -361 45 -46 82 -88 82 -94 0 -5 49 -60 108 -122 59
-61 118 -125 131 -142 12 -16 126 -137 252 -268 126 -130 229 -241 229 -245 0
-5 12 -15 26 -22 14 -8 32 -26 39 -40 7 -14 47 -60 89 -102 42 -43 76 -83 76
-89 0 -6 48 -62 108 -124 59 -62 144 -155 189 -206 45 -52 118 -131 162 -176
44 -46 84 -90 88 -98 5 -8 90 -98 189 -199 100 -100 195 -203 212 -227 58 -85
149 -159 193 -159 23 0 29 7 49 63 22 60 23 74 25 422 1 248 6 371 14 395 6
19 15 117 18 217 7 197 -4 304 -38 382 -11 24 -26 84 -35 133 -11 56 -26 102
-41 125 -13 19 -28 58 -34 86 -6 29 -24 94 -40 145 -47 149 -39 299 27 507
l26 80 -3 425 -4 425 43 104 c23 57 48 111 56 120 31 34 46 130 46 292 0 126
-4 169 -19 220 -28 91 -43 215 -56 454 -7 117 -20 182 -58 275 l-30 75 -3 290
c-2 251 -6 302 -23 380 -12 50 -28 122 -37 160 -13 56 -14 93 -8 185 11 151
11 632 1 693 -7 39 -20 62 -70 118 -34 39 -71 85 -82 103 -11 18 -34 49 -52
69 -32 37 -54 99 -79 222 -8 38 -18 88 -24 110 -5 22 -10 109 -10 193 0 131
-3 161 -21 210 -12 31 -31 91 -41 132 -14 51 -29 85 -49 105 -16 17 -36 53
-44 81 -8 28 -24 59 -36 69 -36 34 -109 180 -124 252 -12 54 -13 114 -8 283
l6 215 -42 103 c-22 56 -41 109 -41 116 0 8 -11 27 -23 43 -14 16 -52 112 -91
233 -37 113 -76 214 -86 225 -10 11 -25 34 -33 50 -8 17 -40 58 -71 92 -48 52
-62 77 -96 173 l-40 112 0 202 0 202 -32 49 c-18 27 -44 65 -58 86 -14 20 -37
47 -52 58 -14 12 -47 50 -72 85 -24 34 -56 70 -70 79 -16 11 -31 35 -41 69 -8
28 -25 62 -36 74 -12 13 -29 47 -39 77 -32 98 -94 163 -325 341 -37 29 -90 56
-107 56 -7 0 -30 11 -50 25 -23 16 -51 25 -75 25 -21 0 -60 7 -88 15 -27 9
-102 19 -166 23 -87 6 -124 13 -150 28 -35 21 -86 88 -139 184 -40 74 -144
166 -213 189 -29 10 -72 28 -95 40 -25 13 -60 21 -89 21 -66 0 -170 18 -203
35 -35 18 -112 99 -154 161 -19 27 -74 92 -124 144 -70 72 -95 107 -107 144
-21 63 -14 89 31 116 29 18 45 21 84 17 51 -6 158 -56 245 -114 62 -40 222
-98 315 -112 36 -5 115 -13 175 -17 61 -4 119 -12 130 -18 17 -9 174 -25 275
-27 56 -1 167 18 190 33 14 9 59 23 100 33 41 9 93 25 115 37 22 11 67 29 100
40 33 11 75 28 93 39 35 20 212 64 302 74 30 4 79 11 108 16 41 8 64 7 110 -6
80 -24 358 -24 393 -1 14 8 45 22 69 31 35 12 70 41 160 134 159 164 159 164
395 171 138 5 197 10 215 21 55 31 107 75 135 114 69 96 115 169 127 201 6 18
53 76 102 127 105 108 163 141 322 183 54 14 110 32 124 39 14 7 60 20 102 29
131 29 196 82 293 239 11 18 32 48 47 67 65 86 63 218 -7 320 -13 19 -27 53
-30 75 -18 106 -163 360 -264 465 -25 27 -55 63 -66 81 -20 33 -94 91 -185
145 -25 15 -71 52 -103 83 -52 51 -60 64 -83 141 -45 150 -75 219 -134 308
-52 78 -67 93 -146 142 -103 65 -207 159 -225 203 -7 18 -23 48 -35 67 -12 19
-27 52 -34 73 -6 21 -26 59 -44 85 -34 51 -141 162 -156 162 -5 0 -45 34 -90
75 -44 42 -92 80 -105 85 -14 5 -34 24 -43 42 -9 17 -31 47 -48 67 -17 20 -39
52 -49 71 -9 19 -26 44 -36 56 -10 11 -25 40 -32 65 -19 61 -89 151 -151 192
-70 48 -186 68 -354 61 l-122 -5 -15 35 c-10 23 -28 42 -53 54 -65 33 -162 95
-162 103 0 13 -50 35 -93 42 -21 3 -51 17 -68 31 -16 14 -61 35 -98 46 -85 25
-149 61 -306 173 -161 114 -227 147 -300 147 -33 1 -71 7 -85 15 -17 10 -59
14 -135 15 -504 1 -802 124 -895 368 -11 29 -22 69 -26 90 -5 35 -3 38 35 59
21 13 56 44 77 70 21 27 67 78 101 115 35 36 63 70 63 76 0 5 14 27 31 48 42
52 48 72 59 178 24 236 66 349 169 460 34 36 61 70 61 75 0 6 16 26 35 45 39
39 41 51 21 101 -10 23 -28 41 -58 56 -24 11 -55 32 -69 46 -37 35 -137 62
-269 74 -167 15 -244 33 -345 83 -49 24 -103 47 -120 51 -16 3 -42 18 -57 32
-20 20 -45 28 -114 38 -79 12 -96 11 -178 -6 -269 -57 -333 -52 -606 47 -107
39 -205 51 -262 34z m-5640 -8028 c29 -26 60 -60 69 -77 9 -16 67 -82 129
-146 63 -64 114 -121 114 -126 0 -5 37 -48 83 -95 132 -138 220 -235 331 -367
l104 -123 -15 -37 c-46 -110 -127 -224 -201 -284 -77 -62 -214 -149 -262 -168
-25 -9 -68 -29 -94 -43 -29 -15 -65 -26 -88 -26 -21 0 -57 -9 -80 -21 -33 -17
-65 -22 -164 -25 l-123 -5 -6 98 c-3 54 -9 386 -13 738 -5 469 -4 652 4 685 7
25 15 71 18 104 4 32 9 63 12 68 3 5 34 -16 67 -46 34 -31 86 -77 115 -104z
m6120 -6692 c189 -201 305 -327 393 -424 24 -27 98 -105 164 -173 163 -167
242 -253 295 -323 25 -32 57 -73 73 -93 l27 -34 -19 -45 c-10 -24 -22 -59 -26
-77 -4 -19 -22 -63 -40 -100 -18 -36 -37 -82 -40 -101 -4 -19 -20 -58 -36 -85
-15 -28 -33 -73 -39 -101 -6 -29 -21 -65 -34 -82 -12 -17 -44 -83 -72 -146
-45 -107 -64 -137 -64 -102 0 36 -133 305 -180 366 -12 15 -26 59 -35 108 -15
88 -18 96 -45 127 -10 11 -23 45 -29 76 -7 31 -20 71 -30 90 -11 20 -29 67
-40 107 -12 39 -33 85 -48 102 -16 20 -31 56 -40 97 -7 36 -22 80 -32 97 -11
17 -25 51 -32 76 -18 66 -103 278 -132 330 -14 25 -28 61 -32 80 -4 19 -23 73
-42 120 -19 47 -63 162 -98 255 l-64 170 52 -55 c29 -31 139 -148 245 -260z"/>
<path d="M6532 17389 c-37 -14 -96 -75 -89 -92 7 -18 25 -22 199 -37 320 -28
470 -155 524 -446 15 -80 16 -195 14 -1129 -1 -572 -5 -1101 -9 -1176 l-6
-136 -85 106 c-49 60 -99 112 -115 119 -55 24 -60 28 -86 76 -14 26 -51 73
-81 104 -48 50 -82 98 -163 227 -10 16 -49 62 -87 102 -37 40 -68 76 -68 80 0
13 -79 116 -101 131 -11 7 -28 30 -39 51 -10 21 -49 69 -85 107 -37 37 -74 82
-82 98 -20 39 -55 84 -110 141 -24 24 -43 48 -43 55 0 6 -33 46 -74 89 -40 42
-84 97 -95 120 -12 23 -63 84 -112 134 -50 51 -98 108 -109 127 -10 19 -28 44
-40 55 -12 11 -30 36 -41 56 -18 35 -104 135 -180 209 -20 19 -44 51 -54 70
-10 19 -31 50 -46 68 -16 18 -29 37 -29 42 0 11 -148 181 -201 231 -22 20 -39
42 -39 50 0 8 -18 36 -40 63 -22 26 -40 52 -40 56 0 13 -81 104 -132 150 -41
36 -57 42 -130 55 -54 10 -152 15 -284 15 -157 0 -210 3 -237 15 -50 21 -415
22 -455 1 -16 -8 -79 -16 -152 -20 -69 -4 -174 -12 -235 -18 -60 -6 -146 -11
-190 -13 -107 -3 -105 -3 -105 -19 0 -21 17 -24 90 -19 58 4 74 1 150 -32 47
-20 105 -44 130 -52 90 -31 172 -106 242 -221 40 -67 52 -97 61 -155 7 -49 11
-676 11 -2002 1 -2167 4 -2065 -67 -2195 -48 -87 -108 -149 -174 -181 -27 -12
-64 -37 -83 -55 -37 -34 -78 -48 -175 -59 -130 -15 -230 -90 -166 -125 26 -13
1579 -14 1615 0 35 13 33 37 -8 84 -31 38 -36 40 -97 42 -133 5 -229 32 -229
65 0 9 -76 134 -105 174 -49 65 -89 165 -122 300 -15 62 -17 181 -23 1035 -4
531 -9 1129 -11 1330 -4 370 9 1100 20 1099 3 0 31 -32 61 -70 30 -39 76 -89
101 -112 25 -23 58 -61 72 -84 15 -23 36 -47 47 -53 11 -6 32 -29 46 -51 13
-22 48 -63 75 -92 28 -29 67 -76 87 -106 21 -29 49 -71 63 -92 15 -22 38 -49
53 -60 15 -11 33 -34 41 -50 9 -16 39 -53 68 -82 29 -28 63 -70 76 -92 24 -41
49 -75 116 -153 57 -66 100 -123 114 -151 7 -13 37 -49 66 -81 30 -32 66 -78
81 -102 15 -24 35 -49 46 -56 10 -7 25 -27 34 -44 9 -17 28 -42 42 -55 14 -13
35 -39 47 -57 33 -54 88 -129 116 -158 15 -15 48 -55 73 -89 25 -34 58 -70 71
-81 14 -11 33 -34 41 -50 16 -30 101 -145 133 -179 9 -10 41 -50 71 -90 30
-39 83 -106 118 -148 34 -42 81 -100 105 -129 23 -29 74 -89 112 -133 39 -45
81 -97 94 -118 13 -20 36 -50 50 -68 14 -18 44 -55 66 -84 22 -28 74 -91 115
-139 41 -48 101 -123 133 -168 31 -44 65 -86 74 -93 8 -8 40 -47 70 -87 30
-40 61 -76 69 -79 8 -3 26 -26 39 -52 13 -25 54 -83 92 -127 37 -45 97 -119
133 -165 36 -46 85 -106 110 -134 25 -27 58 -69 73 -92 21 -33 35 -44 63 -49
79 -15 95 27 106 281 17 397 27 2357 16 3265 -11 924 -9 1001 28 1145 39 150
136 279 255 335 35 16 78 30 94 30 17 1 59 7 95 15 36 8 90 14 120 15 30 0 79
3 108 6 l52 7 0 44 c0 37 -4 45 -26 55 -20 10 -30 9 -54 -5 -36 -22 -69 -22
-100 0 -22 15 -79 17 -649 17 -578 1 -628 0 -658 -16 -36 -20 -117 -24 -160
-7 -50 20 -88 26 -111 18z"/>
<path d="M10610 11500 c-293 -15 -371 -24 -419 -49 -66 -34 -136 -38 -199 -11
-43 18 -63 21 -110 16 -39 -4 -73 -1 -106 9 -80 25 -146 2 -131 -45 10 -30 33
-39 142 -50 127 -14 203 -33 279 -70 92 -45 137 -95 195 -215 l49 -105 -5
-1752 c-6 -2221 -8 -2299 -35 -2398 -41 -153 -64 -201 -121 -257 -49 -49 -63
-57 -165 -88 -61 -19 -128 -35 -150 -35 -29 0 -52 -9 -82 -31 -75 -55 -67 -57
186 -64 249 -7 1930 -10 2002 -4 60 5 73 14 59 41 -9 16 -17 19 -45 13 -28 -5
-44 0 -92 29 -42 26 -73 37 -117 42 -103 10 -104 10 -215 163 -21 29 -42 71
-45 92 -4 21 -13 43 -21 50 -37 30 -44 65 -65 299 -18 195 -18 1316 0 1405 8
39 16 101 18 138 3 42 10 70 17 73 27 10 161 -26 214 -58 29 -18 91 -71 136
-118 80 -83 120 -140 356 -506 63 -98 151 -233 195 -301 44 -67 102 -158 129
-200 28 -43 63 -93 78 -111 15 -18 28 -39 28 -47 0 -7 15 -34 34 -58 19 -25
42 -60 51 -77 15 -28 51 -85 193 -305 25 -38 60 -92 77 -120 18 -27 63 -97
101 -154 38 -57 85 -130 104 -162 22 -35 56 -73 90 -99 l55 -41 635 5 c607 4
712 7 745 20 9 3 15 19 15 40 0 40 -26 70 -68 81 -45 11 -192 96 -206 119 -7
11 -26 43 -42 69 -16 27 -47 72 -69 100 -22 29 -64 93 -94 142 -30 50 -66 104
-81 120 -15 17 -47 66 -70 110 -24 44 -58 96 -75 115 -18 19 -41 51 -50 70
-10 19 -28 46 -41 60 -12 14 -30 41 -38 60 -8 19 -26 46 -40 59 -14 13 -32 47
-41 76 -8 29 -22 58 -30 65 -9 8 -28 34 -42 59 -15 25 -39 64 -55 86 -64 90
-79 112 -102 162 -30 63 -78 137 -118 179 -28 30 -44 55 -92 144 -13 25 -40
61 -60 79 -20 19 -36 40 -36 46 0 6 -11 26 -24 46 -13 20 -39 62 -56 95 -18
32 -49 79 -69 102 -20 24 -40 51 -46 60 -5 10 -21 32 -33 50 -13 18 -22 34
-21 36 2 1 31 12 64 25 202 79 406 216 588 395 75 74 137 139 137 145 0 5 18
31 40 57 22 27 40 54 40 60 0 6 14 28 30 49 17 21 36 58 42 83 6 24 22 58 37
75 20 24 29 53 42 131 9 56 15 124 12 153 -4 35 0 67 12 101 17 47 17 52 2 91
-12 29 -17 69 -16 129 1 104 -29 266 -60 315 -11 19 -27 52 -35 73 -29 82
-118 202 -243 328 -107 108 -187 171 -297 233 -27 16 -63 40 -80 55 -17 14
-58 34 -90 43 -33 10 -91 33 -130 51 -42 20 -86 34 -109 34 -21 0 -57 10 -79
21 -35 18 -53 20 -103 16 -45 -4 -69 -2 -91 9 -17 10 -77 20 -149 25 -158 12
-1713 19 -1925 9z m1378 -33 c3 -12 -4 -17 -22 -17 -32 0 -42 16 -19 29 23 13
37 9 41 -12z m-63 -209 c39 -8 84 -22 102 -31 18 -10 69 -29 115 -43 174 -55
321 -145 431 -263 180 -195 271 -417 284 -691 18 -407 -145 -820 -403 -1018
-138 -106 -223 -142 -449 -191 -91 -20 -436 -46 -530 -39 l-50 3 -7 90 c-9
114 -10 1903 -2 2048 l7 107 32 0 c18 0 57 11 87 25 50 24 61 25 183 21 72 -2
162 -10 200 -18z"/>
</g>
</svg>
